# xmcd
# Copyright (C) 1995-1998 Ti Kan
#
# Track frame offsets:
#       150
#       19250
#       37705
#       56965
#       68500
#       92509
#       115504
#       141105
#       158662
#       172818
#       194082
#       213225
#       237891
#       256213
#       279436
#       302789
#
# Disc length: 4323 seconds
#
# Revision: 0
# Processed by: cddbd v1.5.2PL0 Copyright (c) Steve Scherf et al.
# Submitted via: CD-Transfer v1.0
#
DISCID=cf10e110
DTITLE=Various Art - 
DYEAR=1900
DGENRE=
TTITLE0=Left Hand Blues
TTITLE1=I Wish I Was In Hell
TTITLE2=Until Stars Go Out
TTITLE3=Killo
TTITLE4=Song For The Crickets
TTITLE5=Soul Man
TTITLE6=Sword Removed
TTITLE7=Clap Your Hands
TTITLE8=In Love
TTITLE9=Get It On Now
TTITLE10=Ab Aeterno
TTITLE11=Play Button
TTITLE12=I Wonder
TTITLE13=Blue Funk
TTITLE14=Las Sirenas
TTITLE15=In Search Of A Lost Past
EXTD=
EXTT0=
EXTT1=
EXTT2=
EXTT3=
EXTT4=
EXTT5=
EXTT6=
EXTT7=
EXTT8=
EXTT9=
EXTT10=
EXTT11=
EXTT12=
EXTT13=
EXTT14=
EXTT15=
PLAYORDER=
